<?xml version="1.0" standalone="no"?>
<!DOCTYPE svg PUBLIC "-//W3C//DTD SVG 20010904//EN"
 "http://www.w3.org/TR/2001/REC-SVG-20010904/DTD/svg10.dtd">
<svg version="1.0" xmlns="http://www.w3.org/2000/svg"
 width="360.000000pt" height="360.000000pt" viewBox="0 0 360.000000 360.000000"
 preserveAspectRatio="xMidYMid meet">

<g transform="translate(0.000000,360.000000) scale(0.100000,-0.100000)"
fill="#000000" stroke="none">
<path d="M908 3593 c490 -2 1294 -2 1785 0 490 1 89 2 -893 2 -982 0 -1383 -1
-892 -2z"/>
<path d="M5 1800 c0 -982 1 -1383 2 -893 2 491 2 1295 0 1785 -1 491 -2 90 -2
-892z"/>
<path d="M3595 1800 c0 -982 1 -1383 2 -893 2 491 2 1295 0 1785 -1 491 -2 90
-2 -892z"/>
<path d="M880 2432 l0 -157 460 -303 460 -304 133 87 c72 47 281 184 462 304
l330 218 3 157 c1 87 -1 156 -5 154 -5 -1 -80 -51 -168 -109 -88 -58 -293
-194 -456 -301 l-296 -196 -179 117 c-99 65 -306 201 -461 304 l-283 186 0
-157z"/>
<path d="M880 1635 l0 -462 130 -86 130 -86 0 305 c0 167 2 304 5 304 3 0 147
-95 321 -211 174 -115 322 -213 329 -216 8 -2 158 92 335 211 176 119 322 216
325 216 3 0 5 -135 5 -300 0 -165 3 -300 8 -300 4 0 63 37 132 83 l125 82 3
464 2 463 -22 -14 c-13 -9 -222 -146 -465 -307 l-441 -291 -329 216 c-180 120
-388 256 -460 304 l-133 88 0 -463z"/>
<path d="M908 3 c490 -2 1294 -2 1785 0 490 1 89 2 -893 2 -982 0 -1383 -1
-892 -2z"/>
</g>
</svg>
